<?xml version="1.0" standalone="no"?>
<!DOCTYPE svg PUBLIC "-//W3C//DTD SVG 20010904//EN"
 "http://www.w3.org/TR/2001/REC-SVG-20010904/DTD/svg10.dtd">
<svg version="1.0" xmlns="http://www.w3.org/2000/svg"
 width="992.000000pt" height="992.000000pt" viewBox="0 0 992.000000 992.000000"
 preserveAspectRatio="xMidYMid meet">
<metadata>
Created by potrace 1.11, written by Peter Selinger 2001-2013
</metadata>
<g transform="translate(0.000000,992.000000) scale(0.100000,-0.100000)"
fill="#000000" stroke="none">
<path d="M1650 8789 c-204 -30 -417 -144 -568 -304 -114 -121 -186 -254 -229
-421 -17 -65 -18 -240 -18 -3109 0 -3395 -6 -3102 69 -3276 120 -276 348 -466
671 -558 l90 -25 634 -4 c607 -3 633 -2 626 15 -16 40 -63 294 -69 378 -8 106
5 237 39 387 60 257 202 546 338 685 90 93 143 102 279 52 203 -74 494 -235
823 -454 194 -129 305 -220 359 -294 21 -28 46 -56 56 -61 23 -12 311 -13 363
-1 29 7 59 31 130 104 51 52 129 122 174 155 170 125 528 334 821 480 172 85
201 97 257 100 101 7 146 -27 252 -183 192 -285 293 -595 293 -902 0 -126 -22
-297 -51 -388 -10 -33 -19 -64 -19 -68 0 -4 282 -6 628 -5 l627 4 100 27 c187
50 367 156 488 286 103 112 164 215 213 361 l29 85 3 3065 2 3065 -25 98 c-79
308 -297 540 -622 662 -154 58 51 55 -3472 54 -1780 -1 -3261 -5 -3291 -10z
m1681 -969 c388 -25 756 -163 1054 -395 67 -52 322 -285 516 -472 l47 -45 168
159 c287 269 334 312 395 358 305 235 666 371 1052 395 559 35 1080 -147 1462
-512 276 -264 443 -574 512 -948 23 -131 23 -419 0 -550 -30 -162 -75 -297
-153 -455 -92 -188 -177 -307 -324 -456 -168 -169 -1818 -1712 -1917 -1792
-163 -131 -363 -244 -563 -317 -112 -41 -303 -87 -415 -100 -116 -13 -327 -13
-435 0 -348 42 -746 216 -1011 443 -94 81 -1683 1569 -1847 1731 -281 276
-425 535 -508 916 -16 70 -19 127 -19 315 1 216 2 237 28 344 71 294 182 514
374 742 300 358 802 606 1288 638 66 5 127 9 135 9 8 1 81 -3 161 -8z"/>
<path d="M3229 6247 c-191 -65 -307 -256 -269 -443 38 -188 212 -324 414 -324
175 0 319 88 394 240 24 49 27 66 27 155 0 87 -3 107 -26 155 -92 194 -328
289 -540 217z"/>
<path d="M6379 6251 c-109 -22 -232 -119 -285 -226 -26 -54 -29 -70 -29 -160
0 -89 3 -106 27 -155 75 -152 219 -240 394 -240 175 0 324 97 396 257 17 38
22 68 22 139 1 82 -2 96 -32 157 -88 179 -283 269 -493 228z"/>
<path d="M4804 5181 c-72 -37 -182 -95 -245 -128 -63 -33 -203 -106 -311 -163
-109 -56 -198 -106 -198 -110 0 -4 190 -132 423 -285 232 -153 434 -287 448
-297 l27 -18 303 201 c167 110 370 244 451 297 81 53 148 99 148 102 0 5 -65
39 -515 273 -82 43 -201 105 -263 138 -62 32 -118 59 -125 59 -6 0 -71 -31
-143 -69z"/>
<path d="M3401 2249 c-267 -431 -298 -855 -95 -1289 56 -119 144 -260 163
-260 23 0 348 164 464 234 267 161 388 249 548 399 66 61 147 128 180 149 l59
36 -47 23 c-27 12 -73 49 -103 82 -127 137 -174 176 -365 302 -251 166 -410
260 -569 336 -183 87 -173 88 -235 -12z"/>
<path d="M6335 2242 c-225 -116 -428 -234 -603 -350 -112 -74 -169 -120 -260
-211 -88 -89 -129 -122 -164 -136 -27 -10 -48 -21 -48 -24 0 -3 24 -17 53 -31
35 -16 90 -61 169 -138 129 -127 143 -136 623 -425 332 -200 406 -237 429
-218 22 18 121 187 160 273 166 365 161 747 -15 1100 -60 121 -141 248 -159
248 -8 0 -91 -40 -185 -88z"/>
<path d="M4783 1313 c-23 -4 -243 -199 -243 -214 0 -5 182 -9 405 -9 223 0
405 1 405 3 0 1 -44 48 -98 103 -110 115 -134 127 -223 112 -46 -7 -129 -5
-204 7 -11 1 -30 1 -42 -2z"/>
</g>
</svg>
