<?xml version="1.0" standalone="no"?>
<!DOCTYPE svg PUBLIC "-//W3C//DTD SVG 20010904//EN"
 "http://www.w3.org/TR/2001/REC-SVG-20010904/DTD/svg10.dtd">
<svg version="1.0" xmlns="http://www.w3.org/2000/svg"
 width="700.000000pt" height="700.000000pt" viewBox="0 0 700.000000 700.000000"
 preserveAspectRatio="xMidYMid meet">
<metadata>
Created by potrace 1.11, written by Peter Selinger 2001-2013
</metadata>
<g transform="translate(0.000000,700.000000) scale(0.100000,-0.100000)"
fill="#000000" stroke="none">
<path d="M858 6760 c-305 -52 -542 -254 -640 -545 l-23 -70 -3 -2450 c-2
-1814 0 -2469 8 -2525 46 -295 269 -531 586 -621 76 -22 98 -23 592 -27 281
-2 512 -2 512 0 0 2 -7 26 -15 53 -45 145 -56 353 -29 510 38 222 162 493 283
618 79 83 110 91 214 56 154 -52 405 -188 667 -362 171 -114 247 -174 295
-234 21 -26 45 -54 54 -60 19 -16 267 -18 308 -2 15 5 58 41 94 79 37 38 104
96 150 130 195 145 763 455 856 467 86 11 128 -18 216 -152 161 -245 237 -477
237 -724 0 -109 -19 -250 -44 -333 l-15 -48 459 0 c569 0 635 7 804 91 160 80
279 195 351 343 88 179 80 -94 80 2696 0 2364 -1 2478 -18 2540 -74 263 -278
465 -557 552 l-75 23 -2650 1 c-1457 1 -2671 -2 -2697 -6z m1556 -809 c252
-51 502 -168 681 -318 33 -27 143 -127 244 -222 l183 -172 26 23 c15 13 98 91
187 173 203 189 251 230 350 295 162 105 350 180 557 222 161 32 443 33 604 0
477 -96 870 -386 1065 -787 91 -188 129 -340 136 -550 13 -371 -118 -711 -379
-987 -85 -89 -1472 -1388 -1566 -1466 -184 -153 -443 -276 -692 -329 -121 -26
-449 -26 -570 0 -255 55 -493 167 -686 323 -91 73 -1583 1474 -1630 1530 -155
184 -272 436 -309 664 -56 346 25 695 229 995 225 332 631 571 1060 625 115
14 396 4 510 -19z"/>
<path d="M2155 4707 c-109 -37 -177 -96 -221 -190 -67 -148 7 -331 166 -406
47 -22 68 -26 150 -26 81 0 103 4 150 26 79 37 125 81 161 155 79 159 10 340
-159 420 -67 32 -184 42 -247 21z"/>
<path d="M4653 4692 c-63 -23 -127 -66 -159 -107 -126 -166 -68 -393 125 -484
48 -22 69 -26 151 -26 84 0 102 3 152 28 71 35 150 119 172 183 20 61 20 147
0 208 -22 63 -101 148 -171 182 -74 37 -193 44 -270 16z"/>
<path d="M3310 3786 c-107 -56 -269 -141 -359 -188 l-164 -86 359 -237 c198
-131 366 -239 375 -239 16 -1 729 464 729 475 0 10 -711 379 -729 379 -9 -1
-104 -47 -211 -104z"/>
<path d="M2296 1498 c-13 -18 -43 -67 -66 -110 -170 -316 -187 -623 -51 -938
33 -77 123 -234 140 -244 12 -8 261 117 396 198 188 113 316 207 435 319 58
55 124 109 147 120 l42 21 -47 27 c-26 15 -80 63 -120 108 -59 65 -106 102
-245 194 -214 142 -337 214 -482 283 -63 30 -116 54 -119 54 -3 0 -16 -15 -30
-32z"/>
<path d="M4645 1452 c-355 -184 -563 -320 -694 -452 -65 -65 -109 -101 -134
-109 -20 -7 -37 -16 -37 -20 0 -4 19 -16 43 -27 24 -11 80 -57 132 -109 78
-77 120 -108 295 -216 325 -199 472 -285 514 -300 37 -13 39 -13 62 16 48 59
154 287 181 390 22 86 26 120 26 245 -1 158 -13 222 -72 376 -31 80 -145 284
-159 284 -4 0 -74 -35 -157 -78z"/>
<path d="M3343 670 c-21 -15 -65 -55 -98 -89 l-59 -61 332 0 c183 0 332 1 332
3 0 8 -148 156 -165 164 -11 6 -83 11 -162 11 -141 0 -143 0 -180 -28z"/>
</g>
</svg>
