<?xml version="1.0" encoding="UTF-8" standalone="no"?>
<svg
   xmlns:dc="http://purl.org/dc/elements/1.1/"
   xmlns:cc="http://creativecommons.org/ns#"
   xmlns:rdf="http://www.w3.org/1999/02/22-rdf-syntax-ns#"
   xmlns:svg="http://www.w3.org/2000/svg"
   xmlns="http://www.w3.org/2000/svg"
   xmlns:sodipodi="http://sodipodi.sourceforge.net/DTD/sodipodi-0.dtd"
   xmlns:inkscape="http://www.inkscape.org/namespaces/inkscape"
   inkscape:version="1.0beta2 (unknown)"
   inkscape:export-ydpi="101"
   inkscape:export-xdpi="101"
   inkscape:export-filename="/home/patchon/projects/airspace-hugo/redlin/static/images/logo.png"
   sodipodi:docname="logo.svg"
   id="svg166"
   version="1.1"
   height="44.523167pt"
   width="125.39166pt"
   viewBox="0 0 125.39166 44.523166"
   style="isolation:isolate"
   inkscape:dataloss="true">
  <metadata
     id="metadata170">
    <rdf:RDF>
      <cc:Work
         rdf:about="">
        <dc:format>image/svg+xml</dc:format>
        <dc:type
           rdf:resource="http://purl.org/dc/dcmitype/StillImage" />
        <dc:title />
      </cc:Work>
    </rdf:RDF>
  </metadata>
  <sodipodi:namedview
     lock-margins="true"
     fit-margin-bottom="5"
     fit-margin-right="5"
     fit-margin-left="5"
     fit-margin-top="5"
     inkscape:current-layer="g162"
     inkscape:window-maximized="1"
     inkscape:window-y="0"
     inkscape:window-x="0"
     inkscape:cy="-142.03886"
     inkscape:cx="-204.34348"
     inkscape:zoom="1.2956608"
     showguides="true"
     showgrid="false"
     id="namedview168"
     inkscape:window-height="1183"
     inkscape:window-width="2048"
     inkscape:pageshadow="2"
     inkscape:pageopacity="0"
     guidetolerance="10"
     gridtolerance="10"
     objecttolerance="10"
     borderopacity="1"
     inkscape:document-rotation="0"
     bordercolor="#666666"
     pagecolor="#ffffff" />
  <defs
     id="defs5">
    <rect
       id="rect1253"
       height="37.668766"
       width="94.636421"
       y="197.48453"
       x="220.26833" />
    <clipPath
       id="_clipPath_SuH6XYuAQEZxUNdRuMsT951K1sMctlyv">
      <rect
         y="0"
         x="0"
         id="rect2"
         height="449.90701"
         width="1133.42" />
    </clipPath>
  </defs>
  <g
     transform="translate(-93.48466,-160.98929)"
     id="g164"
     clip-path="url(#_clipPath_SuH6XYuAQEZxUNdRuMsT951K1sMctlyv)">
    <clipPath
       id="_clipPath_DMUgKo6tnvMYwgWl2fW3w1QoxZ9jLFj9">
      <path
         inkscape:connector-curvature="0"
         id="path7"
         fill="rgb(255,255,255)"
         d="M 0,0 V 449.907 H 1133.42 V 0 Z" />
    </clipPath>
    <g
       id="g162"
       clip-path="url(#_clipPath_DMUgKo6tnvMYwgWl2fW3w1QoxZ9jLFj9)">
      <path
         d="M 126.51133,165.98929 H 102.3252 c -2.12087,0 -3.84054,1.71967 -3.84054,3.8409 v 24.18613 c 0,2.12124 1.71967,3.8409 3.84054,3.8409 h 24.18613 c 2.12124,0 3.84091,-1.71966 3.84091,-3.8409 v -24.18613 c 0,-2.12123 -1.71967,-3.8409 -3.84091,-3.8409 z"
         fill="rgb(55,53,53)"
         id="path110-5"
         inkscape:connector-curvature="0"
         style="isolation:isolate;fill:#000000;stroke-width:0.36573"
         inkscape:export-filename="/home/patchon/projects/airspace-hugo/redlin/static/images/logo.png"
         inkscape:export-xdpi="101"
         inkscape:export-ydpi="101" />
      <path
         d="m 106.26924,195.9525 c 0.0541,-1.37954 0.46667,-2.64862 1.20727,-3.81457 0.0666,-0.10424 0.14447,-0.20261 0.22566,-0.29661 0.37378,-0.43339 0.60345,-0.49922 1.14327,-0.27613 1.17144,0.48386 2.21816,1.18461 3.24513,1.91314 0.53177,0.37707 1.07122,0.75158 1.44061,1.31078 0.11594,0.17555 0.2743,0.20445 0.48642,0.17665 0.27211,-0.0359 0.55409,0.009 0.82948,-0.0124 0.15325,-0.0121 0.36646,-0.0417 0.44181,-0.14446 0.54749,-0.74755 1.30383,-1.24495 2.06015,-1.73027 0.7962,-0.51056 1.61617,-0.99003 2.45662,-1.42343 0.7406,-0.38218 1.04196,-0.29989 1.49108,0.3811 1.69553,2.57072 1.68967,5.28919 0.0106,7.87052 -0.0673,0.1035 -0.15471,0.19456 -0.23589,0.28856 -0.2637,0.30611 -0.58189,0.4023 -0.96042,0.23699 -0.27028,-0.11813 -0.55481,-0.21578 -0.80205,-0.37158 -1.03721,-0.65429 -2.07296,-1.31188 -3.08639,-2.00201 -0.31454,-0.21432 -0.57713,-0.51788 -0.8251,-0.81265 -0.17921,-0.21359 -0.3394,-0.31599 -0.63271,-0.25309 -0.23517,0.0505 -0.49703,0.037 -0.73585,-0.008 -0.23627,-0.0446 -0.37012,0.0366 -0.52446,0.1964 -0.35439,0.36646 -0.70476,0.74645 -1.1067,1.05587 -1.02368,0.78814 -2.1099,1.48522 -3.28243,2.03455 -0.84045,0.39389 -1.1206,0.32367 -1.62897,-0.45277 -0.7662,-1.16924 -1.1707,-2.46027 -1.21715,-3.86651 z"
         fill="rgb(254,254,254)"
         id="path112-9"
         inkscape:connector-curvature="0"
         style="isolation:isolate;stroke-width:0.36573"
         inkscape:export-filename="/home/patchon/projects/airspace-hugo/redlin/static/images/logo.png"
         inkscape:export-xdpi="101"
         inkscape:export-ydpi="101" />
      <path
         d="m 126.33652,172.09406 v 0 c -2.81541,-2.81539 -7.42252,-2.81539 -10.23791,0 l -1.68016,1.68017 -1.68017,-1.68017 c -2.81539,-2.81539 -7.4225,-2.81539 -10.2379,0 v 0 c -2.81539,2.8154 -2.81539,7.4225 0,10.2379 l 6.72396,6.72396 c 0.0249,0.0256 0.0479,0.0519 0.0731,0.0772 v 0 c 1.40842,1.40806 3.2645,2.21559 5.12096,2.21486 1.85607,5.1e-4 3.71253,-0.8068 5.12096,-2.21486 v 0 c 0.0252,-0.0252 0.0483,-0.0516 0.0731,-0.0772 l 6.72397,-6.72396 c 2.81539,-2.8154 2.81539,-7.4225 0,-10.2379 z"
         fill="rgb(254,254,254)"
         id="path116-2"
         inkscape:connector-curvature="0"
         style="isolation:isolate;stroke-width:0.36573"
         inkscape:export-filename="/home/patchon/projects/airspace-hugo/redlin/static/images/logo.png"
         inkscape:export-xdpi="101"
         inkscape:export-ydpi="101" />
      <path
         d="m 114.41845,185.08518 -3.50261,-2.46868 3.50261,-1.95117 3.5026,1.95117 z"
         fill="rgb(223,161,51)"
         id="path120-7"
         inkscape:connector-curvature="0"
         style="isolation:isolate;stroke-width:0.36573"
         inkscape:export-filename="/home/patchon/projects/airspace-hugo/redlin/static/images/logo.png"
         inkscape:export-xdpi="101"
         inkscape:export-ydpi="101" />
      <path
         d="m 117.92105,182.6165 -3.5026,-1.95117 -3.50261,1.95117 z"
         fill="rgb(253,191,50)"
         id="path122-8"
         inkscape:connector-curvature="0"
         style="isolation:isolate;stroke-width:0.36573"
         inkscape:export-filename="/home/patchon/projects/airspace-hugo/redlin/static/images/logo.png"
         inkscape:export-xdpi="101"
         inkscape:export-ydpi="101" />
      <path
         style="isolation:isolate;stroke-width:0.417203"
         inkscape:export-ydpi="101"
         inkscape:export-xdpi="101"
         inkscape:export-filename="/home/patchon/projects/airspace-hugo/redlin/static/images/logo.png"
         inkscape:connector-curvature="0"
         id="path86-1-5"
         fill="rgb(55,53,53)"
         d="m 210.40227,177.93697 c -0.36046,0.20526 -0.6525,0.49105 -0.85777,0.85777 -0.2111,0.37298 -0.31707,0.76431 -0.31707,1.16858 0,0.40386 0.10597,0.78935 0.31082,1.15607 0.20526,0.36631 0.49104,0.65251 0.85777,0.85735 0.36672,0.20527 0.75221,0.31082 1.15606,0.31082 0.40386,0 0.78935,-0.10555 1.15607,-0.31082 0.36672,-0.20484 0.65251,-0.49104 0.85735,-0.85735 0.20527,-0.36672 0.31082,-0.75221 0.31082,-1.15607 0,-0.40427 -0.10555,-0.7956 -0.31707,-1.16858 -0.20485,-0.36672 -0.49689,-0.65251 -0.85735,-0.85777 -0.36673,-0.19859 -0.75222,-0.2983 -1.14982,-0.2983 -0.39801,0 -0.78309,0.0997 -1.14981,0.2983 z m 2.06975,0.40427 c 0.29204,0.1552 0.52818,0.38508 0.69589,0.68338 0.16772,0.2983 0.24865,0.61537 0.24865,0.9387 0,0.32292 -0.0809,0.63373 -0.24865,0.92578 -0.16146,0.2983 -0.39175,0.52859 -0.69005,0.69005 -0.29204,0.16772 -0.60286,0.24865 -0.92578,0.24865 -0.32333,0 -0.63414,-0.0809 -0.92619,-0.24865 -0.2983,-0.16146 -0.52817,-0.39175 -0.68963,-0.69005 -0.16814,-0.29205 -0.24866,-0.60286 -0.24866,-0.92578 0,-0.32959 0.0805,-0.6404 0.24866,-0.9387 0.16771,-0.2983 0.40385,-0.52818 0.69589,-0.68338 0.29204,-0.16188 0.60286,-0.2424 0.91993,-0.2424 0.31708,0 0.62748,0.0805 0.91994,0.2424 z m -0.59076,2.37388 c -0.0993,0.0809 -0.21111,0.11807 -0.34795,0.11807 -0.16146,0 -0.2983,-0.0684 -0.41011,-0.2111 -0.11807,-0.13685 -0.17397,-0.35421 -0.17397,-0.65251 0,-0.29246 0.0559,-0.50982 0.17397,-0.65292 0.11807,-0.13643 0.26701,-0.20485 0.4535,-0.20485 0.11807,0 0.22404,0.0309 0.31707,0.0993 0.0872,0.0684 0.16146,0.17397 0.21778,0.32333 l 0.49063,-0.11807 c -0.093,-0.25491 -0.22362,-0.4414 -0.39133,-0.55947 -0.16146,-0.11807 -0.37298,-0.18023 -0.62163,-0.18023 -0.22363,0 -0.42889,0.0496 -0.60912,0.14936 -0.18649,0.10555 -0.32292,0.25449 -0.42263,0.45976 -0.093,0.20526 -0.14268,0.4414 -0.14268,0.70215 0,0.39801 0.11181,0.71467 0.32917,0.9387 0.21778,0.22988 0.49731,0.34169 0.839,0.34169 0.24865,0 0.46017,-0.0684 0.6404,-0.20526 0.17398,-0.13643 0.30456,-0.33543 0.37882,-0.59034 l -0.49063,-0.16146 c -0.0563,0.18649 -0.13058,0.32333 -0.23029,0.40385 z" />
      <path
         d="m 120.48893,199.46999 c -0.16311,-0.0669 -0.31672,-0.1302 -0.41839,-0.19383 -1.04124,-0.65686 -2.05761,-1.30237 -3.05459,-1.98116 -0.19127,-0.13057 -0.39462,-0.36391 -0.60309,-0.61224 -0.10313,-0.12252 -0.36317,-0.43156 -0.80351,-0.58004 0.25016,-0.0761 0.5336,-0.22091 0.74024,-0.50252 0.44473,-0.60675 1.1473,-1.05769 1.76758,-1.45524 0.79985,-0.51275 1.59605,-0.97431 2.36664,-1.37149 0.0175,-0.009 0.034,-0.0172 0.0494,-0.0249 0.007,0.0106 0.0154,0.0226 0.0234,0.0347 1.45086,2.20023 1.45341,4.44399 0.007,6.668 -0.009,0.0128 -0.019,0.0252 -0.0293,0.0373 -0.015,-0.006 -0.03,-0.0121 -0.045,-0.0187 z m -11.90892,-0.10935 c -0.65173,-0.99442 -0.99113,-2.06162 -1.03684,-3.26159 0.0519,-1.159 0.3906,-2.21559 1.03501,-3.2294 0.0216,-0.034 0.0508,-0.0735 0.0892,-0.11995 1.08001,0.45606 2.05578,1.12205 2.96388,1.76648 l 0.0421,0.03 c 0.46777,0.33135 0.87154,0.61772 1.11804,0.99076 0.18506,0.27942 0.43632,0.47838 0.7322,0.5859 -0.33465,0.13057 -0.54494,0.34818 -0.63272,0.43925 l -0.12837,0.13349 c -0.29295,0.30465 -0.56944,0.59248 -0.85837,0.81485 -1.04489,0.80497 -2.05175,1.42964 -3.07872,1.91057 -0.0622,0.0293 -0.11411,0.0523 -0.1569,0.0702 -0.0249,-0.0351 -0.0545,-0.0783 -0.0885,-0.13056 z"
         fill="rgb(235,235,236)"
         id="path114-9"
         inkscape:connector-curvature="0"
         style="isolation:isolate;fill:#ff8080;fill-opacity:1;stroke-width:0.36573"
         inkscape:export-filename="/home/patchon/projects/airspace-hugo/redlin/static/images/logo.png"
         inkscape:export-xdpi="101"
         inkscape:export-ydpi="101" />
      <path
         inkscape:connector-curvature="0"
         id="path50-0-5"
         fill="rgb(41,41,41)"
         d="m 122.00363,178.12889 c 0,0.89643 -0.72986,1.62334 -1.62997,1.62334 -0.90072,0 -1.6306,-0.72691 -1.6306,-1.62334 0,-0.89707 0.72988,-1.62398 1.6306,-1.62398 0.90011,0 1.62997,0.72691 1.62997,1.62398 z"
         style="isolation:isolate;stroke-width:0.626842"
         inkscape:export-filename="/home/patchon/projects/airspace-hugo/redlin/static/images/logo.png"
         inkscape:export-xdpi="101"
         inkscape:export-ydpi="101" />
      <path
         inkscape:connector-curvature="0"
         id="path48-1-3"
         fill="rgb(41,41,41)"
         d="m 109.96042,178.08507 c 0,0.89644 -0.72987,1.62397 -1.6306,1.62397 -0.90072,0 -1.63061,-0.72753 -1.63061,-1.62397 0,-0.89706 0.72989,-1.62398 1.63061,-1.62398 0.90073,0 1.6306,0.72692 1.6306,1.62398 z"
         style="isolation:isolate;stroke-width:0.626842"
         inkscape:export-filename="/home/patchon/projects/airspace-hugo/redlin/static/images/logo.png"
         inkscape:export-xdpi="101"
         inkscape:export-ydpi="101" />
      <text
         style="font-size:30px;line-height:1.25;font-family:Roboto;-inkscape-font-specification:'Roboto weight=250';letter-spacing:0px;white-space:pre;shape-inside:url(#rect1253);"
         id="text1251"
         xml:space="preserve" />
      <text
         inkscape:export-ydpi="101"
         inkscape:export-xdpi="101"
         inkscape:export-filename="/home/patchon/projects/airspace-hugo/redlin/static/images/logo.png"
         id="text1035-4-8"
         y="196.54715"
         x="140.73563"
         style="font-size:26.25px;line-height:1.25;font-family:Roboto;-inkscape-font-specification:'Roboto weight=250';letter-spacing:0px;isolation:isolate;stroke-width:0.75"
         xml:space="preserve"><tspan
           style="font-style:normal;font-variant:normal;font-weight:normal;font-stretch:normal;font-family:'Kelly Slab';-inkscape-font-specification:'Kelly Slab Normal';font-variant-ligatures:normal;font-variant-caps:normal;font-variant-numeric:normal;font-variant-east-asian:normal;stroke-width:0.75"
           y="196.54715"
           x="140.73563"
           id="tspan1033-7-9"
           sodipodi:role="line"><tspan
   style="fill:#cc0000;fill-opacity:1"
   id="tspan876">red</tspan>lin</tspan></text>
    </g>
  </g>
</svg>
