<?xml version="1.0" encoding="UTF-8" standalone="no"?>
<svg
   xmlns:dc="http://purl.org/dc/elements/1.1/"
   xmlns:cc="http://creativecommons.org/ns#"
   xmlns:rdf="http://www.w3.org/1999/02/22-rdf-syntax-ns#"
   xmlns:svg="http://www.w3.org/2000/svg"
   xmlns="http://www.w3.org/2000/svg"
   xmlns:sodipodi="http://sodipodi.sourceforge.net/DTD/sodipodi-0.dtd"
   xmlns:inkscape="http://www.inkscape.org/namespaces/inkscape"
   sodipodi:docname="logo-no-text.svg"
   inkscape:version="1.0 (4035a4fb49, 2020-05-01)"
   id="svg31"
   version="1.1"
   viewBox="0 0 13.599593 14.948965"
   height="56.5"
   width="51.400002">
  <defs
     id="defs25" />
  <sodipodi:namedview
     borderlayer="true"
     inkscape:showpageshadow="false"
     showguides="true"
     units="px"
     inkscape:window-maximized="0"
     inkscape:window-y="23"
     inkscape:window-x="26"
     inkscape:window-height="974"
     inkscape:window-width="1530"
     inkscape:snap-page="false"
     showgrid="false"
     inkscape:document-rotation="0"
     inkscape:current-layer="layer1"
     inkscape:document-units="mm"
     inkscape:cy="75.300601"
     inkscape:cx="93.429835"
     inkscape:zoom="5.2863408"
     inkscape:pageshadow="2"
     inkscape:pageopacity="0.0"
     borderopacity="1.0"
     bordercolor="#666666"
     pagecolor="#ffffff"
     id="base" />
  <metadata
     id="metadata28">
    <rdf:RDF>
      <cc:Work
         rdf:about="">
        <dc:format>image/svg+xml</dc:format>
        <dc:type
           rdf:resource="http://purl.org/dc/dcmitype/StillImage" />
        <dc:title></dc:title>
      </cc:Work>
    </rdf:RDF>
  </metadata>
  <g
     id="layer1"
     inkscape:groupmode="layer"
     inkscape:label="Layer 1">
    <path
       d="M 11.954706,1.13096 H 1.6389888 c -0.9045761,0 -1.63803868647,0.6872638 -1.63803868647,1.5350098 v 9.6659762 c 0,0.847759 0.73346258647,1.535021 1.63803868647,1.535021 H 11.954706 c 0.904742,0 1.638201,-0.687262 1.638201,-1.535021 V 2.6659698 c 0,-0.847746 -0.733459,-1.5350098 -1.638201,-1.5350098 z"
       fill="rgb(55,53,53)"
       id="path110-5"
       inkscape:connector-curvature="0"
       style="isolation:isolate;fill:#000000;stroke-width:0.150997"
       inkscape:export-filename="/home/patchon/projects/airspace-hugo/redlin/static/images/logo.png"
       inkscape:export-xdpi="101"
       inkscape:export-ydpi="101" />
    <path
       d="m 3.7170515,13.105739 c 0.023075,-0.551331 0.1990411,-1.058514 0.5149154,-1.524485 0.028405,-0.04169 0.061624,-0.081 0.096252,-0.118546 0.1594213,-0.173203 0.2573796,-0.19951 0.4876205,-0.110339 0.499634,0.193369 0.946073,0.473425 1.384088,0.764582 0.226807,0.150694 0.456889,0.300368 0.61444,0.523861 0.04945,0.07011 0.116989,0.08168 0.207462,0.07057 0.116045,-0.01438 0.236328,0.0033 0.353784,-0.0046 0.06535,-0.0046 0.156301,-0.01665 0.188437,-0.05778 0.233513,-0.29873 0.556101,-0.497514 0.878681,-0.691471 0.33959,-0.204051 0.689319,-0.395664 1.047782,-0.568879 0.315875,-0.152732 0.4444075,-0.119845 0.6359636,0.152312 0.723169,1.027385 0.720668,2.113825 0.0046,3.145446 -0.02869,0.04137 -0.06599,0.0777 -0.100626,0.115334 -0.1125156,0.122374 -0.2482306,0.16081 -0.4096796,0.09474 -0.115279,-0.04721 -0.236632,-0.08618 -0.342084,-0.148465 -0.442441,-0.261491 -0.884201,-0.524292 -1.316444,-0.800111 -0.134155,-0.08564 -0.246153,-0.206963 -0.351915,-0.324769 -0.07645,-0.08541 -0.14476,-0.12628 -0.26986,-0.101163 -0.10031,0.02018 -0.211989,0.01483 -0.313849,-0.0033 -0.10077,-0.01778 -0.157861,0.01462 -0.223688,0.0785 -0.151152,0.146385 -0.300589,0.298247 -0.472023,0.421898 -0.436609,0.314966 -0.899895,0.59356 -1.399996,0.813099 C 4.5724062,14.989536 4.4529172,14.961473 4.2360925,14.65117 3.9092979,14.183885 3.7367741,13.667923 3.7169626,13.10592 Z"
       fill="#fefefe"
       id="path112-9"
       inkscape:connector-curvature="0"
       style="isolation:isolate;stroke-width:0.150997"
       inkscape:export-filename="/home/patchon/projects/airspace-hugo/redlin/static/images/logo.png"
       inkscape:export-xdpi="101"
       inkscape:export-ydpi="101" />
    <path
       d="m 11.880145,3.5707329 v 0 c -1.200802,-1.1251736 -3.1658219,-1.1251736 -4.3666219,0 L 6.7969121,4.2422053 6.0802971,3.5707329 c -1.200797,-1.1251736 -3.1657866,-1.1251736 -4.3665934,0 v 0 c -1.20079568,1.1251735 -1.20079568,2.9663964 0,4.0915694 l 2.8678554,2.6872237 c 0.0106,0.01023 0.02044,0.02072 0.03119,0.03081 v 0 c 0.600708,0.562727 1.392351,0.885459 2.184155,0.885164 0.791637,2.04e-4 1.583441,-0.322437 2.184155,-0.885165 v 0 c 0.01082,-0.01025 0.02061,-0.02062 0.03119,-0.03081 L 11.88012,7.6623023 c 1.200804,-1.125173 1.200804,-2.9663961 0,-4.0915695 z"
       fill="#fefefe"
       id="path116-2"
       inkscape:connector-curvature="0"
       style="isolation:isolate;stroke-width:0.150997"
       inkscape:export-filename="/home/patchon/projects/airspace-hugo/redlin/static/images/logo.png"
       inkscape:export-xdpi="101"
       inkscape:export-ydpi="101" />
    <path
       d="m 6.7969121,8.7626303 -1.493907,-0.986611 1.493907,-0.779785 1.493905,0.779785 z"
       fill="#dfa133"
       id="path120-7"
       inkscape:connector-curvature="0"
       style="isolation:isolate;stroke-width:0.150997"
       inkscape:export-filename="/home/patchon/projects/airspace-hugo/redlin/static/images/logo.png"
       inkscape:export-xdpi="101"
       inkscape:export-ydpi="101" />
    <path
       d="m 8.2908171,7.7760193 -1.493905,-0.779785 -1.493907,0.779785 z"
       fill="#fdbf32"
       id="path122-8"
       inkscape:connector-curvature="0"
       style="isolation:isolate;stroke-width:0.150997"
       inkscape:export-filename="/home/patchon/projects/airspace-hugo/redlin/static/images/logo.png"
       inkscape:export-xdpi="101"
       inkscape:export-ydpi="101" />
    <path
       d="m 9.3860501,14.511511 c -0.06959,-0.02673 -0.135087,-0.052 -0.178449,-0.07748 -0.444101,-0.262519 -0.877596,-0.520496 -1.302822,-0.791773 -0.08157,-0.05222 -0.16831,-0.145437 -0.257227,-0.244688 -0.04398,-0.04894 -0.154894,-0.172466 -0.342706,-0.231805 0.106699,-0.03047 0.227587,-0.08825 0.315724,-0.200834 0.189681,-0.242491 0.489337,-0.422707 0.753894,-0.581591 0.341146,-0.204913 0.680736,-0.389376 1.009402,-0.548114 0.0076,-0.0033 0.01441,-0.0068 0.02106,-0.01024 0.0032,0.0046 0.0066,0.0091 0.01003,0.01394 0.6188129,0.87932 0.6199009,1.776039 0.0032,2.664863 -0.0039,0.0056 -0.0082,0.01024 -0.01247,0.01495 -0.0065,-0.0023 -0.01276,-0.0046 -0.01919,-0.008 z M 4.306745,14.467781 C 4.0287736,14.070365 3.8840148,13.643853 3.8645189,13.164289 c 0.022149,-0.463196 0.166597,-0.885461 0.4414449,-1.290629 0.00913,-0.01359 0.021666,-0.02934 0.038053,-0.04792 0.4606383,0.182267 0.8768163,0.448435 1.2641313,0.70598 l 0.01796,0.01199 c 0.199511,0.132421 0.371723,0.246874 0.476859,0.395959 0.07892,0.111701 0.186095,0.191183 0.312292,0.234152 -0.142731,0.05222 -0.232424,0.139149 -0.269864,0.175548 l -0.05476,0.05335 c -0.124936,0.121752 -0.242875,0.236783 -0.366108,0.325656 -0.445657,0.3217 -0.875096,0.57135 -1.313111,0.763564 -0.02653,0.01169 -0.048683,0.02095 -0.066921,0.02808 -0.010597,-0.01407 -0.023254,-0.03128 -0.037738,-0.05224 z"
       fill="rgb(235,235,236)"
       id="path114-9"
       inkscape:connector-curvature="0"
       style="isolation:isolate;fill:#cc0000;fill-opacity:1;stroke-width:0.150997"
       inkscape:export-filename="/home/patchon/projects/airspace-hugo/redlin/static/images/logo.png"
       inkscape:export-xdpi="101"
       inkscape:export-ydpi="101" />
    <path
       inkscape:connector-curvature="0"
       id="path50-0-5"
       fill="#292929"
       d="m 10.032095,5.9825473 c 0,0.358257 -0.3113013,0.648769 -0.6952089,0.648769 -0.38417,0 -0.695472,-0.290512 -0.695472,-0.648769 0,-0.358518 0.311302,-0.649019 0.695472,-0.649019 0.3839076,0 0.6952089,0.290501 0.6952089,0.649019 z"
       style="isolation:isolate;stroke-width:0.258799"
       inkscape:export-filename="/home/patchon/projects/airspace-hugo/redlin/static/images/logo.png"
       inkscape:export-xdpi="101"
       inkscape:export-ydpi="101" />
    <path
       inkscape:connector-curvature="0"
       id="path48-1-3"
       fill="#292929"
       d="m 4.8955071,5.9650323 c 0,0.35827 -0.311298,0.649019 -0.6954725,0.649019 -0.3841675,0 -0.6954757,-0.290749 -0.6954757,-0.649019 0,-0.358506 0.3113082,-0.649018 0.6954757,-0.649018 0.3841745,0 0.6954725,0.290512 0.6954725,0.649018 z"
       style="isolation:isolate;stroke-width:0.258799"
       inkscape:export-filename="/home/patchon/projects/airspace-hugo/redlin/static/images/logo.png"
       inkscape:export-xdpi="101"
       inkscape:export-ydpi="101" />
  </g>
</svg>
