<?xml version="1.0" encoding="UTF-8" standalone="no"?>
<svg
   xmlns:dc="http://purl.org/dc/elements/1.1/"
   xmlns:cc="http://creativecommons.org/ns#"
   xmlns:rdf="http://www.w3.org/1999/02/22-rdf-syntax-ns#"
   xmlns:svg="http://www.w3.org/2000/svg"
   xmlns="http://www.w3.org/2000/svg"
   xmlns:sodipodi="http://sodipodi.sourceforge.net/DTD/sodipodi-0.dtd"
   xmlns:inkscape="http://www.inkscape.org/namespaces/inkscape"
   sodipodi:docname="logo.svg"
   inkscape:version="1.0 (4035a4fb49, 2020-05-01)"
   id="svg31"
   version="1.1"
   viewBox="0 0 47.442446 14.948971"
   height="56.5"
   width="179.31">
  <defs
     id="defs25" />
  <sodipodi:namedview
     units="px"
     inkscape:window-maximized="0"
     inkscape:window-y="23"
     inkscape:window-x="26"
     inkscape:window-height="974"
     inkscape:window-width="1530"
     inkscape:snap-page="false"
     showgrid="false"
     inkscape:document-rotation="0"
     inkscape:current-layer="layer1"
     inkscape:document-units="mm"
     inkscape:cy="75.524715"
     inkscape:cx="44.180716"
     inkscape:zoom="2.9633858"
     inkscape:pageshadow="2"
     inkscape:pageopacity="0.0"
     borderopacity="1.0"
     bordercolor="#666666"
     pagecolor="#ffffff"
     id="base" />
  <metadata
     id="metadata28">
    <rdf:RDF>
      <cc:Work
         rdf:about="">
        <dc:format>image/svg+xml</dc:format>
        <dc:type
           rdf:resource="http://purl.org/dc/dcmitype/StillImage" />
        <dc:title></dc:title>
      </cc:Work>
    </rdf:RDF>
  </metadata>
  <g
     id="layer1"
     inkscape:groupmode="layer"
     inkscape:label="Layer 1">
    <path
       d="M 11.955788,1.107723 H 1.640096 c -0.90457859,0 -1.63804091,0.6872637 -1.63804091,1.5350132 v 9.6659768 c 0,0.847759 0.73346232,1.535021 1.63804091,1.535021 h 10.315692 c 0.904742,0 1.638201,-0.687262 1.638201,-1.535021 V 2.6427362 c 0,-0.8477495 -0.733459,-1.5350132 -1.638201,-1.5350132 z"
       fill="rgb(55,53,53)"
       id="path110-5"
       inkscape:connector-curvature="0"
       style="isolation:isolate;fill:#000000;stroke-width:0.150997"
       inkscape:export-filename="/home/patchon/projects/airspace-hugo/redlin/static/images/logo.png"
       inkscape:export-xdpi="101"
       inkscape:export-ydpi="101" />
    <path
       d="m 3.3222784,13.082506 c 0.023075,-0.551331 0.1990411,-1.058514 0.5149154,-1.524485 0.028405,-0.04169 0.061624,-0.081 0.096252,-0.118546 0.1594213,-0.173203 0.2573796,-0.19951 0.4876204,-0.110339 0.4996339,0.193369 0.9460735,0.473425 1.3840879,0.764582 0.2268073,0.150694 0.4568894,0.300368 0.6144405,0.523861 0.049447,0.07011 0.1169889,0.08168 0.2074616,0.07057 0.1160456,-0.01438 0.2363277,0.0033 0.3537839,-0.0046 0.065354,-0.0046 0.1563012,-0.01665 0.1884376,-0.05778 0.2335125,-0.29873 0.5561005,-0.497514 0.8786809,-0.691471 0.3395899,-0.204051 0.6893183,-0.395664 1.0477816,-0.568879 0.3158747,-0.152732 0.4444083,-0.119845 0.6359638,0.152312 0.723169,1.027385 0.720668,2.113825 0.0046,3.145446 -0.02869,0.04137 -0.065988,0.0777 -0.1006255,0.115334 -0.1125165,0.122374 -0.2482307,0.16081 -0.40968,0.09474 C 9.1107197,14.82604 8.9893659,14.787071 8.8839145,14.724786 8.4414732,14.463295 7.9997134,14.200494 7.5674708,13.924675 7.433315,13.839036 7.321317,13.717712 7.2155549,13.599906 c -0.076447,-0.08541 -0.1447594,-0.12628 -0.26986,-0.101163 -0.1003098,0.02018 -0.2119889,0.01483 -0.3138486,-0.0033 -0.1007703,-0.01778 -0.1578609,0.01462 -0.2236878,0.0785 C 6.2570062,13.720328 6.1075694,13.87219 5.9361358,13.995841 5.4995259,14.310807 5.0362399,14.589401 4.5361396,14.80894 4.1776331,14.966303 4.0581441,14.93824 3.8413194,14.627937 3.5145248,14.160652 3.342001,13.64469 3.3221895,13.082687 Z"
       fill="#fefefe"
       id="path112-9"
       inkscape:connector-curvature="0"
       style="isolation:isolate;stroke-width:0.150997"
       inkscape:export-filename="/home/patchon/projects/airspace-hugo/redlin/static/images/logo.png"
       inkscape:export-xdpi="101"
       inkscape:export-ydpi="101" />
    <path
       d="m 11.881227,3.5474993 v 0 c -1.200802,-1.1251736 -3.1657968,-1.1251736 -4.3665963,0 L 6.7980196,4.2189717 6.0814046,3.5474993 c -1.2007975,-1.1251736 -3.1657869,-1.1251736 -4.3665937,0 v 0 c -1.20079796,1.1251735 -1.20079796,2.9663969 0,4.0915696 l 2.8678557,2.6872241 c 0.010597,0.01023 0.020436,0.02072 0.031189,0.03081 v 0 c 0.6007081,0.562727 1.3923512,0.885459 2.1841544,0.885164 0.7916373,2.04e-4 1.5834414,-0.322437 2.1841549,-0.885165 v 0 c 0.010819,-0.01025 0.020607,-0.02062 0.031192,-0.03081 L 11.881203,7.6390689 c 1.200804,-1.1251727 1.200804,-2.9663963 0,-4.0915697 z"
       fill="#fefefe"
       id="path116-2"
       inkscape:connector-curvature="0"
       style="isolation:isolate;stroke-width:0.150997"
       inkscape:export-filename="/home/patchon/projects/airspace-hugo/redlin/static/images/logo.png"
       inkscape:export-xdpi="101"
       inkscape:export-ydpi="101" />
    <path
       d="M 6.7980196,8.7393966 5.3041121,7.7527858 6.7980196,6.973001 8.2919242,7.7527858 Z"
       fill="#dfa133"
       id="path120-7"
       inkscape:connector-curvature="0"
       style="isolation:isolate;stroke-width:0.150997"
       inkscape:export-filename="/home/patchon/projects/airspace-hugo/redlin/static/images/logo.png"
       inkscape:export-xdpi="101"
       inkscape:export-ydpi="101" />
    <path
       d="M 8.2919242,7.7527858 6.7980196,6.973001 5.3041121,7.7527858 Z"
       fill="#fdbf32"
       id="path122-8"
       inkscape:connector-curvature="0"
       style="isolation:isolate;stroke-width:0.150997"
       inkscape:export-filename="/home/patchon/projects/airspace-hugo/redlin/static/images/logo.png"
       inkscape:export-xdpi="101"
       inkscape:export-ydpi="101" />
    <path
       d="m 9.3871573,14.488278 c -0.06959,-0.02673 -0.1350866,-0.052 -0.1784491,-0.07748 C 8.7646075,14.148279 8.3311124,13.890302 7.9058859,13.619025 7.8243148,13.566805 7.7375764,13.473588 7.6486595,13.374337 7.6046764,13.325397 7.4937651,13.201871 7.305953,13.142532 c 0.1066994,-0.03047 0.2275874,-0.08825 0.315724,-0.200834 0.189681,-0.242491 0.4893377,-0.422707 0.7538948,-0.581591 0.3411459,-0.204913 0.6807351,-0.389376 1.0094018,-0.548114 0.0076,-0.0033 0.014414,-0.0068 0.021057,-0.01024 0.00319,0.0046 0.00656,0.0091 0.010033,0.01394 0.6188084,0.87932 0.6198964,1.776039 0.00319,2.664863 -0.00394,0.0056 -0.00816,0.01024 -0.012471,0.01495 -0.00648,-0.0023 -0.012761,-0.0046 -0.01919,-0.008 z M 4.3078522,14.444548 C 4.0298808,14.047132 3.885122,13.62062 3.8656261,13.141056 c 0.022149,-0.463196 0.166597,-0.885461 0.4414449,-1.290629 0.00913,-0.01359 0.021666,-0.02934 0.038053,-0.04792 0.4606383,0.182267 0.8768161,0.448435 1.2641312,0.70598 l 0.017962,0.01199 c 0.1995111,0.132421 0.371723,0.246874 0.4768588,0.395959 0.078917,0.111701 0.1860955,0.191183 0.312292,0.234152 -0.1427309,0.05222 -0.2324236,0.139149 -0.2698641,0.175548 l -0.054756,0.05335 c -0.1249355,0.121752 -0.2428743,0.236783 -0.3661073,0.325656 -0.4456572,0.3217 -0.8750964,0.57135 -1.3131108,0.763564 -0.026535,0.01169 -0.048684,0.02095 -0.066922,0.02808 -0.010597,-0.01407 -0.023254,-0.03128 -0.037738,-0.05224 z"
       fill="rgb(235,235,236)"
       id="path114-9"
       inkscape:connector-curvature="0"
       style="isolation:isolate;fill:#cc0000;fill-opacity:1;stroke-width:0.150997"
       inkscape:export-filename="/home/patchon/projects/airspace-hugo/redlin/static/images/logo.png"
       inkscape:export-xdpi="101"
       inkscape:export-ydpi="101" />
    <path
       inkscape:connector-curvature="0"
       id="path50-0-5"
       fill="#292929"
       d="m 10.033198,5.9593134 c 0,0.3582569 -0.311295,0.6487693 -0.6952044,0.6487693 -0.3841698,0 -0.6954721,-0.2905124 -0.6954721,-0.6487693 0,-0.358518 0.3113023,-0.6490186 0.6954721,-0.6490186 0.3839094,0 0.6952044,0.2905006 0.6952044,0.6490186 z"
       style="isolation:isolate;stroke-width:0.258799"
       inkscape:export-filename="/home/patchon/projects/airspace-hugo/redlin/static/images/logo.png"
       inkscape:export-xdpi="101"
       inkscape:export-ydpi="101" />
    <path
       inkscape:connector-curvature="0"
       id="path48-1-3"
       fill="#292929"
       d="m 4.8966143,5.9417991 c 0,0.3582692 -0.3112977,0.649019 -0.6954725,0.649019 -0.3841675,0 -0.6954757,-0.2907498 -0.6954757,-0.649019 0,-0.3585063 0.3113082,-0.6490186 0.6954757,-0.6490186 0.3841748,0 0.6954725,0.2905123 0.6954725,0.6490186 z"
       style="isolation:isolate;stroke-width:0.258799"
       inkscape:export-filename="/home/patchon/projects/airspace-hugo/redlin/static/images/logo.png"
       inkscape:export-xdpi="101"
       inkscape:export-ydpi="101" />
    <g
       transform="matrix(0.90729319,0,0,0.90729319,1.5413637,0.07556048)"
       style="font-size:11.9312px;line-height:1.25;font-family:Roboto;-inkscape-font-specification:'Roboto weight=250';letter-spacing:0px;isolation:isolate;fill:#cc0000;fill-opacity:1;stroke-width:0.340891"
       id="text1035-4-8"
       aria-label="red">
      <path
         d="m 33.996094,5.5136719 v 0.8105469 h 0.787109 v 2.171875 H 32.375 c -0.413615,-1e-7 -0.717304,0.1225624 -0.908203,0.3691406 -0.111358,0.1352202 -0.166016,0.386063 -0.166016,0.7519531 v 4.1757815 c 0,0.206807 0.06219,0.389745 0.189453,0.548828 0.135221,0.159083 0.31063,0.238281 0.525391,0.238281 0.222716,0 0.4585,-0.06219 0.705078,-0.189453 l 2.0625,-1.300781 v 1.371094 h 1.730469 V 13.638672 H 35.761719 V 5.5136719 Z M 20.132812,8.484375 v 0.8105469 h 0.751954 v 4.3554691 h -0.751954 v 0.810547 h 2.302735 V 13.650391 H 21.851562 V 10.5 l 1.861329,-1.1816406 v 1.1582026 h 0.964843 V 9.4140625 c 0,-0.6124683 -0.309265,-0.9179687 -0.929687,-0.9179687 -0.159083,-1e-7 -0.302421,0.039599 -0.429688,0.1191406 L 21.851562,9.5332031 V 8.484375 Z m 6.847657,0 c -0.819276,0 -1.228516,0.3941814 -1.228516,1.1816406 v 3.9238284 c 0,0.238624 0.07167,0.446103 0.214844,0.621094 0.151129,0.167036 0.398206,0.249999 0.740234,0.25 h 2.445313 c 0.342027,-1e-6 0.585341,-0.08296 0.728515,-0.25 0.151129,-0.174991 0.226563,-0.38247 0.226563,-0.621094 v -0.63086 h -0.94336 v 0.691407 H 26.707031 V 12.802734 L 30.107422,10.65625 V 9.5449219 c 0,-0.4056608 -0.08868,-0.6828559 -0.263672,-0.8339844 C 29.668759,8.559809 29.3878,8.484375 28.998047,8.484375 Z m -0.273438,0.8222656 h 2.445313 v 0.9902344 l -2.445313,1.539063 z m 5.546875,0 h 2.529297 v 2.8281254 l -2.529297,1.574218 z"
         inkscape:original="M 33.996094 5.5136719 L 33.996094 6.3242188 L 34.783203 6.3242188 L 34.783203 8.4960938 L 32.375 8.4960938 C 31.961385 8.4960937 31.657696 8.6186562 31.466797 8.8652344 C 31.355439 9.0004546 31.300781 9.2512974 31.300781 9.6171875 L 31.300781 13.792969 C 31.300781 13.999776 31.362968 14.182714 31.490234 14.341797 C 31.625455 14.50088 31.800864 14.580078 32.015625 14.580078 C 32.238341 14.580078 32.474125 14.517891 32.720703 14.390625 L 34.783203 13.089844 L 34.783203 14.460938 L 36.513672 14.460938 L 36.513672 13.638672 L 35.761719 13.638672 L 35.761719 5.5136719 L 33.996094 5.5136719 z M 20.132812 8.484375 L 20.132812 9.2949219 L 20.884766 9.2949219 L 20.884766 13.650391 L 20.132812 13.650391 L 20.132812 14.460938 L 22.435547 14.460938 L 22.435547 13.650391 L 21.851562 13.650391 L 21.851562 10.5 L 23.712891 9.3183594 L 23.712891 10.476562 L 24.677734 10.476562 L 24.677734 9.4140625 C 24.677734 8.8015942 24.368469 8.4960938 23.748047 8.4960938 C 23.588964 8.4960937 23.445626 8.535693 23.318359 8.6152344 L 21.851562 9.5332031 L 21.851562 8.484375 L 20.132812 8.484375 z M 26.980469 8.484375 C 26.161193 8.484375 25.751953 8.8785564 25.751953 9.6660156 L 25.751953 13.589844 C 25.751953 13.828468 25.823623 14.035947 25.966797 14.210938 C 26.117926 14.377974 26.365003 14.460937 26.707031 14.460938 L 29.152344 14.460938 C 29.494371 14.460937 29.737685 14.377974 29.880859 14.210938 C 30.031988 14.035947 30.107422 13.828468 30.107422 13.589844 L 30.107422 12.958984 L 29.164062 12.958984 L 29.164062 13.650391 L 26.707031 13.650391 L 26.707031 12.802734 L 30.107422 10.65625 L 30.107422 9.5449219 C 30.107422 9.1392611 30.018741 8.862066 29.84375 8.7109375 C 29.668759 8.559809 29.3878 8.484375 28.998047 8.484375 L 26.980469 8.484375 z M 26.707031 9.3066406 L 29.152344 9.3066406 L 29.152344 10.296875 L 26.707031 11.835938 L 26.707031 9.3066406 z M 32.253906 9.3066406 L 34.783203 9.3066406 L 34.783203 12.134766 L 32.253906 13.708984 L 32.253906 9.3066406 z "
         inkscape:radius="0"
         sodipodi:type="inkscape:offset"
         style="font-style:normal;font-variant:normal;font-weight:normal;font-stretch:normal;font-family:'Kelly Slab';-inkscape-font-specification:'Kelly Slab Normal';font-variant-ligatures:normal;font-variant-caps:normal;font-variant-numeric:normal;font-variant-east-asian:normal;fill:#cc0000;fill-opacity:1;stroke-width:0.340891"
         id="path1133" />
    </g>
    <g
       transform="translate(-0.32508539,-1.2761093)"
       aria-label="lin"
       id="text1035-4-8-3"
       style="font-size:10.8251px;line-height:1.25;font-family:Roboto;-inkscape-font-specification:'Roboto weight=250';letter-spacing:0px;isolation:isolate;stroke-width:0.309288">
      <path
         id="path23"
         style="font-style:normal;font-variant:normal;font-weight:normal;font-stretch:normal;font-family:'Kelly Slab';-inkscape-font-specification:'Kelly Slab Normal';font-variant-ligatures:normal;font-variant-caps:normal;font-variant-numeric:normal;font-variant-east-asian:normal;stroke-width:0.309288"
         sodipodi:type="inkscape:offset"
         inkscape:radius="0"
         inkscape:original="M 35.990234 6.3535156 L 35.990234 7.0898438 L 36.671875 7.0898438 L 36.671875 13.736328 L 35.990234 13.736328 L 35.990234 14.472656 L 38.263672 14.472656 L 38.263672 13.736328 L 37.558594 13.736328 L 37.558594 6.3535156 L 35.990234 6.3535156 z M 40.470703 7.0683594 C 40.319152 7.0683594 40.190283 7.1247666 40.082031 7.2402344 C 39.973781 7.3484854 39.919922 7.4818569 39.919922 7.640625 C 39.919922 7.7921764 39.969279 7.922999 40.070312 8.03125 C 40.178564 8.1322843 40.309386 8.1835938 40.460938 8.1835938 C 40.619706 8.1835937 40.748575 8.1322843 40.849609 8.03125 C 40.95786 7.922999 41.011719 7.7921764 41.011719 7.640625 C 41.011719 7.4818569 40.95786 7.3484854 40.849609 7.2402344 C 40.748575 7.1247666 40.622254 7.0683594 40.470703 7.0683594 z M 46.230469 8.9511719 C 46.086134 8.9511719 45.955312 8.9864264 45.839844 9.0585938 L 44.042969 10.185547 L 44.042969 9.0585938 L 42.484375 9.0585938 L 42.484375 9.7851562 L 43.166016 9.7851562 L 43.166016 13.736328 L 42.484375 13.736328 L 42.484375 14.472656 L 44.574219 14.472656 L 44.574219 13.736328 L 44.042969 13.736328 L 44.042969 11.0625 L 46.197266 9.7089844 L 46.197266 13.736328 L 45.677734 13.736328 L 45.677734 14.472656 L 47.767578 14.472656 L 47.767578 13.736328 L 47.074219 13.736328 L 47.074219 9.7851562 C 47.074219 9.2294678 46.793374 8.9511719 46.230469 8.9511719 z M 39.345703 9.0585938 L 39.345703 9.7949219 L 40.027344 9.7949219 L 40.027344 13.736328 L 39.345703 13.736328 L 39.345703 14.472656 L 41.619141 14.472656 L 41.619141 13.736328 L 40.914062 13.736328 L 40.914062 9.0585938 L 39.345703 9.0585938 z "
         d="m 35.990234,6.3535156 v 0.7363282 h 0.681641 v 6.6464842 h -0.681641 v 0.736328 h 2.273438 V 13.736328 H 37.558594 V 6.3535156 Z m 4.480469,0.7148438 c -0.151551,0 -0.28042,0.056407 -0.388672,0.171875 -0.10825,0.108251 -0.162109,0.2416225 -0.162109,0.4003906 0,0.1515514 0.04936,0.282374 0.15039,0.390625 0.108252,0.1010343 0.239074,0.1523438 0.390626,0.1523438 0.158768,-1e-7 0.287637,-0.05131 0.388671,-0.1523438 0.108251,-0.108251 0.16211,-0.2390736 0.16211,-0.390625 0,-0.1587681 -0.05386,-0.2921396 -0.16211,-0.4003906 -0.101034,-0.1154678 -0.227355,-0.171875 -0.378906,-0.171875 z m 5.759766,1.8828125 c -0.144335,0 -0.275157,0.035254 -0.390625,0.1074219 L 44.042969,10.185547 V 9.0585938 h -1.558594 v 0.7265624 h 0.681641 v 3.9511718 h -0.681641 v 0.736328 h 2.089844 v -0.736328 h -0.53125 V 11.0625 l 2.154297,-1.3535156 v 4.0273436 h -0.519532 v 0.736328 h 2.089844 V 13.736328 H 47.074219 V 9.7851562 c 0,-0.5556884 -0.280845,-0.8339843 -0.84375,-0.8339843 z m -6.884766,0.1074219 v 0.7363281 h 0.681641 v 3.9414061 h -0.681641 v 0.736328 h 2.273438 V 13.736328 H 40.914062 V 9.0585938 Z" />
    </g>
  </g>
</svg>
