<?xml version="1.0" encoding="UTF-8" standalone="no"?>
<svg
   xmlns:dc="http://purl.org/dc/elements/1.1/"
   xmlns:cc="http://creativecommons.org/ns#"
   xmlns:rdf="http://www.w3.org/1999/02/22-rdf-syntax-ns#"
   xmlns:svg="http://www.w3.org/2000/svg"
   xmlns="http://www.w3.org/2000/svg"
   xmlns:sodipodi="http://sodipodi.sourceforge.net/DTD/sodipodi-0.dtd"
   xmlns:inkscape="http://www.inkscape.org/namespaces/inkscape"
   sodipodi:docname="logo-no-text.svg"
   inkscape:version="1.0rc1 (unknown)"
   id="svg31"
   version="1.1"
   viewBox="0 0 14.28751 16.40417"
   height="62"
   width="54">
  <defs
     id="defs25" />
  <sodipodi:namedview
     units="px"
     inkscape:window-maximized="0"
     inkscape:window-y="23"
     inkscape:window-x="26"
     inkscape:window-height="974"
     inkscape:window-width="1530"
     inkscape:snap-page="false"
     showgrid="false"
     inkscape:document-rotation="0"
     inkscape:current-layer="layer1"
     inkscape:document-units="mm"
     inkscape:cy="75.795958"
     inkscape:cx="76.591518"
     inkscape:zoom="3.7966806"
     inkscape:pageshadow="2"
     inkscape:pageopacity="0.0"
     borderopacity="1.0"
     bordercolor="#666666"
     pagecolor="#ffffff"
     id="base" />
  <metadata
     id="metadata28">
    <rdf:RDF>
      <cc:Work
         rdf:about="">
        <dc:format>image/svg+xml</dc:format>
        <dc:type
           rdf:resource="http://purl.org/dc/dcmitype/StillImage" />
        <dc:title></dc:title>
      </cc:Work>
    </rdf:RDF>
  </metadata>
  <g
     id="layer1"
     inkscape:groupmode="layer"
     inkscape:label="Layer 1">
    <path
       d="M 12.280873,1.8546692 H 1.965181 c -0.9045782,0 -1.63804052,0.6872637 -1.63804052,1.5350097 v 9.6659771 c 0,0.847759 0.73346232,1.535021 1.63804052,1.535021 h 10.315692 c 0.904742,0 1.638201,-0.687262 1.638201,-1.535021 V 3.3896789 c 0,-0.847746 -0.733459,-1.5350097 -1.638201,-1.5350097 z"
       fill="rgb(55,53,53)"
       id="path110-5"
       inkscape:connector-curvature="0"
       style="isolation:isolate;fill:#000000;stroke-width:0.150997"
       inkscape:export-filename="/home/patchon/projects/airspace-hugo/redlin/static/images/logo.png"
       inkscape:export-xdpi="101"
       inkscape:export-ydpi="101" />
    <path
       d="m 3.6473634,13.829449 c 0.023075,-0.551331 0.1990411,-1.058514 0.5149154,-1.524485 0.028405,-0.04169 0.061624,-0.081 0.096252,-0.118546 0.1594213,-0.173203 0.2573796,-0.19951 0.4876204,-0.110339 0.4996339,0.193369 0.9460735,0.473425 1.3840879,0.764582 0.2268073,0.150694 0.4568894,0.300368 0.6144405,0.523861 0.049447,0.07011 0.1169889,0.08168 0.2074616,0.07057 0.1160456,-0.01438 0.2363277,0.0033 0.3537839,-0.0046 0.065354,-0.0046 0.1563012,-0.01665 0.1884376,-0.05778 0.2335125,-0.29873 0.5561005,-0.497514 0.8786809,-0.691471 0.3395899,-0.204051 0.6893183,-0.395664 1.0477816,-0.568879 0.3158747,-0.152732 0.4444083,-0.119845 0.6359638,0.152312 0.723169,1.027385 0.720668,2.113825 0.0046,3.145446 -0.02869,0.04137 -0.065988,0.0777 -0.1006255,0.115334 -0.1125165,0.122374 -0.2482307,0.16081 -0.40968,0.09474 C 9.4358047,15.572983 9.3144509,15.534014 9.2089995,15.471729 8.7665582,15.210238 8.3247984,14.947437 7.8925558,14.671618 7.7584,14.585979 7.646402,14.464655 7.5406399,14.346849 c -0.076447,-0.08541 -0.1447594,-0.12628 -0.26986,-0.101163 -0.1003098,0.02018 -0.2119889,0.01483 -0.3138486,-0.0033 -0.1007703,-0.01778 -0.1578609,0.01462 -0.2236878,0.0785 C 6.5820912,14.467271 6.4326544,14.619133 6.2612208,14.742784 5.8246109,15.05775 5.3613249,15.336344 4.8612246,15.555883 4.5027181,15.713246 4.3832291,15.685183 4.1664044,15.37488 3.8396098,14.907595 3.667086,14.391633 3.6472745,13.82963 Z"
       fill="#fefefe"
       id="path112-9"
       inkscape:connector-curvature="0"
       style="isolation:isolate;stroke-width:0.150997"
       inkscape:export-filename="/home/patchon/projects/airspace-hugo/redlin/static/images/logo.png"
       inkscape:export-xdpi="101"
       inkscape:export-ydpi="101" />
    <path
       d="m 12.206312,4.294442 v 0 c -1.200802,-1.1251736 -3.1657968,-1.1251736 -4.3665963,0 L 7.1231046,4.9659144 6.4064896,4.294442 c -1.2007975,-1.1251736 -3.1657869,-1.1251736 -4.3665937,0 v 0 c -1.20079757,1.1251735 -1.20079757,2.9663969 0,4.0915696 l 2.8678557,2.6872244 c 0.010597,0.01023 0.020436,0.02072 0.031189,0.03081 v 0 c 0.6007081,0.562727 1.3923512,0.885459 2.1841544,0.885164 0.7916373,2.04e-4 1.5834414,-0.322437 2.1841549,-0.885165 v 0 c 0.010819,-0.01025 0.020607,-0.02062 0.031192,-0.03081 L 12.206288,8.3860116 c 1.200804,-1.1251727 1.200804,-2.9663963 0,-4.0915697 z"
       fill="#fefefe"
       id="path116-2"
       inkscape:connector-curvature="0"
       style="isolation:isolate;stroke-width:0.150997"
       inkscape:export-filename="/home/patchon/projects/airspace-hugo/redlin/static/images/logo.png"
       inkscape:export-xdpi="101"
       inkscape:export-ydpi="101" />
    <path
       d="M 7.1231046,9.4863393 5.6291971,8.4997285 7.1231046,7.7199437 8.6170092,8.4997285 Z"
       fill="#dfa133"
       id="path120-7"
       inkscape:connector-curvature="0"
       style="isolation:isolate;stroke-width:0.150997"
       inkscape:export-filename="/home/patchon/projects/airspace-hugo/redlin/static/images/logo.png"
       inkscape:export-xdpi="101"
       inkscape:export-ydpi="101" />
    <path
       d="M 8.6170092,8.4997285 7.1231046,7.7199437 5.6291971,8.4997285 Z"
       fill="#fdbf32"
       id="path122-8"
       inkscape:connector-curvature="0"
       style="isolation:isolate;stroke-width:0.150997"
       inkscape:export-filename="/home/patchon/projects/airspace-hugo/redlin/static/images/logo.png"
       inkscape:export-xdpi="101"
       inkscape:export-ydpi="101" />
    <path
       d="m 9.7122423,15.235221 c -0.06959,-0.02673 -0.1350866,-0.052 -0.1784491,-0.07748 C 9.0896925,14.895222 8.6561974,14.637245 8.2309709,14.365968 8.1493998,14.313748 8.0626614,14.220531 7.9737445,14.12128 7.9297614,14.07234 7.8188501,13.948814 7.631038,13.889475 c 0.1066994,-0.03047 0.2275874,-0.08825 0.315724,-0.200834 0.189681,-0.242491 0.4893377,-0.422707 0.7538948,-0.581591 0.3411459,-0.204913 0.6807351,-0.389376 1.0094018,-0.548114 0.0076,-0.0033 0.014414,-0.0068 0.021057,-0.01024 0.00319,0.0046 0.00656,0.0091 0.010033,0.01394 0.6188084,0.87932 0.6198964,1.776039 0.00319,2.664863 -0.00394,0.0056 -0.00816,0.01024 -0.012471,0.01495 -0.00648,-0.0023 -0.012761,-0.0046 -0.01919,-0.008 z M 4.6329372,15.191491 C 4.3549658,14.794075 4.210207,14.367563 4.1907111,13.887999 c 0.022149,-0.463196 0.166597,-0.885461 0.4414449,-1.290629 0.00913,-0.01359 0.021666,-0.02934 0.038053,-0.04792 0.4606383,0.182267 0.8768161,0.448435 1.2641312,0.70598 l 0.017962,0.01199 c 0.1995111,0.132421 0.371723,0.246874 0.4768588,0.395959 0.078917,0.111701 0.1860955,0.191183 0.312292,0.234152 -0.1427309,0.05222 -0.2324236,0.139149 -0.2698641,0.175548 l -0.054756,0.05335 c -0.1249355,0.121752 -0.2428743,0.236783 -0.3661073,0.325656 -0.4456572,0.3217 -0.8750964,0.57135 -1.3131108,0.763564 -0.026535,0.01169 -0.048684,0.02095 -0.066922,0.02808 -0.010597,-0.01407 -0.023254,-0.03128 -0.037738,-0.05224 z"
       fill="rgb(235,235,236)"
       id="path114-9"
       inkscape:connector-curvature="0"
       style="isolation:isolate;fill:#cc0000;fill-opacity:1;stroke-width:0.150997"
       inkscape:export-filename="/home/patchon/projects/airspace-hugo/redlin/static/images/logo.png"
       inkscape:export-xdpi="101"
       inkscape:export-ydpi="101" />
    <path
       inkscape:connector-curvature="0"
       id="path50-0-5"
       fill="#292929"
       d="m 10.358283,6.7062561 c 0,0.3582569 -0.311295,0.6487693 -0.6952044,0.6487693 -0.3841698,0 -0.6954721,-0.2905124 -0.6954721,-0.6487693 0,-0.358518 0.3113023,-0.6490186 0.6954721,-0.6490186 0.3839094,0 0.6952044,0.2905006 0.6952044,0.6490186 z"
       style="isolation:isolate;stroke-width:0.258799"
       inkscape:export-filename="/home/patchon/projects/airspace-hugo/redlin/static/images/logo.png"
       inkscape:export-xdpi="101"
       inkscape:export-ydpi="101" />
    <path
       inkscape:connector-curvature="0"
       id="path48-1-3"
       fill="#292929"
       d="m 5.2216993,6.6887418 c 0,0.3582692 -0.3112977,0.649019 -0.6954725,0.649019 -0.3841675,0 -0.6954757,-0.2907498 -0.6954757,-0.649019 0,-0.3585063 0.3113082,-0.6490186 0.6954757,-0.6490186 0.3841748,0 0.6954725,0.2905123 0.6954725,0.6490186 z"
       style="isolation:isolate;stroke-width:0.258799"
       inkscape:export-filename="/home/patchon/projects/airspace-hugo/redlin/static/images/logo.png"
       inkscape:export-xdpi="101"
       inkscape:export-ydpi="101" />
  </g>
</svg>
